<svg width="20" height="20" xmlns="http://www.w3.org/2000/svg" version="1.1">
 <title>Icon/menu</title>

 <g>
  <title>Layer 1</title>
  <g stroke="null" fill-rule="evenodd" fill="none" id="Icon/menu">
   <g stroke="null" fill-rule="nonzero" fill="#000000" id="menu-(2)">
    <path stroke="null" id="Shape" d="m2.5,5.48611c0,-0.41639 0.3358,-0.75397 0.75,-0.75397l9.75,0c0.4142,0 0.75,0.33758 0.75,0.75397c0,0.41639 -0.3358,0.75397 -0.75,0.75397l-9.75,0c-0.4142,0 -0.75,-0.33761 -0.75,-0.75397zm14.25,3.82937l-13.5,0c-0.4142,0 -0.75,0.33761 -0.75,0.75397c0,0.41639 0.3358,0.75397 0.75,0.75397l13.5,0c0.4142,0 0.75,-0.33758 0.75,-0.75397c0,-0.41636 -0.3358,-0.75397 -0.75,-0.75397zm-6.75,4.44444l-6.75,0c-0.41417,0 -0.75,0.33758 -0.75,0.75397c0,0.41636 0.33583,0.75397 0.75,0.75397l6.75,0c0.4142,0 0.75,-0.33761 0.75,-0.75397c0,-0.41639 -0.3358,-0.75397 -0.75,-0.75397z"/>
   </g>
  </g>
 </g>
</svg>