<?xml version="1.0" encoding="UTF-8"?>
<svg width="128px" height="128px" viewBox="0 0 128 128" version="1.1" xmlns="http://www.w3.org/2000/svg" xmlns:xlink="http://www.w3.org/1999/xlink">
    <title>Icon/menu</title>
    <g id="Icon/menu" stroke="none" stroke-width="1" fill="none" fill-rule="evenodd">
        <g id="menu-(2)" transform="translate(10.000000, 26.000000)" fill="#000000" fill-rule="nonzero">
            <path d="M0,5.42857143 C0,2.43055804 2.41776563,0 5.4,0 L75.6,0 C78.5822344,0 81,2.43055804 81,5.42857143 C81,8.42658482 78.5822344,10.8571429 75.6,10.8571429 L5.4,10.8571429 C2.41776562,10.8571429 0,8.42637277 0,5.42857143 Z M102.6,33 L5.4,33 C2.41776563,33 0,35.4307701 0,38.4285714 C0,41.4265848 2.41776562,43.8571429 5.4,43.8571429 L102.6,43.8571429 C105.582234,43.8571429 108,41.4265848 108,38.4285714 C108,35.4307701 105.582234,33 102.6,33 Z M54,65 L5.4,65 C2.41797656,65 0,67.430558 0,70.4285714 C0,73.4263728 2.41797656,75.8571429 5.4,75.8571429 L54,75.8571429 C56.9822344,75.8571429 59.4,73.4263728 59.4,70.4285714 C59.4,67.430558 56.9822344,65 54,65 Z" id="Shape"></path>
        </g>
    </g>
</svg>